<svg version="1.1" id="Layer_1" xmlns="http://www.w3.org/2000/svg" xmlns:xlink="http://www.w3.org/1999/xlink" x="0px" y="0px"
	 width="100%" viewBox="0 0 500 501" enable-background="new 0 0 500 501" xml:space="preserve">
<path fill="#FFFFFF" opacity="1.000000" stroke="none" 
	d="
M501.000000,259.000000 
	C501.000000,339.963623 501.000000,420.927246 501.000000,501.890869 
	C500.869812,501.927277 500.739594,501.995544 500.609375,501.995544 
	C334.184143,502.000031 167.758926,502.000000 1.000000,502.000000 
	C1.000000,426.645569 1.000000,351.290619 1.374465,275.602936 
	C2.510267,279.712585 3.232971,284.162048 4.039506,288.596252 
	C7.921328,309.937958 13.996408,330.606049 22.824127,350.457336 
	C38.656502,386.060364 61.965847,416.043945 91.665161,440.999268 
	C110.621597,456.927673 131.890625,469.343475 154.737305,478.924377 
	C181.433121,490.119415 209.367584,496.347351 238.199493,497.856812 
	C256.648163,498.822662 275.039764,497.427704 293.353790,494.180054 
	C315.623077,490.231049 336.860596,483.449890 357.298676,473.940735 
	C378.612518,464.024048 398.241150,451.351440 415.595032,435.598877 
	C426.222168,425.952301 435.668396,414.952942 445.212891,404.178314 
	C457.736115,390.041046 467.218628,373.741089 475.312164,356.855438 
	C481.316254,344.329163 485.673645,330.945129 489.968018,317.685211 
	C495.261292,301.340942 498.319397,284.489990 499.076813,267.254822 
	C499.198730,264.480408 500.333435,261.750488 501.000000,259.000000 
z"/>
<path fill="#FFFFFF" opacity="1.000000" stroke="none" 
	d="
M285.000000,1.000000 
	C356.930115,1.000000 428.860199,1.000000 501.000000,1.000000 
	C501.000000,79.020767 501.000000,157.041733 500.634155,235.364960 
	C499.846863,234.100128 499.233459,232.556778 499.035828,230.961899 
	C497.970184,222.362823 497.176727,213.727310 495.975616,205.148285 
	C493.185822,185.222061 486.877106,166.251587 478.867371,147.939713 
	C468.345184,123.883934 454.348267,101.835846 436.700165,82.354851 
	C423.398590,67.671852 408.793549,54.262508 392.334106,43.113873 
	C365.552032,24.973289 336.445068,12.031195 304.800018,5.012978 
	C298.226685,3.555147 291.601349,2.331550 285.000000,1.000000 
z"/>
<path fill="#FFFFFF" opacity="1.000000" stroke="none" 
	d="
M0.999999,223.000000 
	C1.000000,149.074127 1.000000,75.148254 1.000000,1.000000 
	C72.354073,1.000000 143.708374,1.000000 215.349304,1.374681 
	C203.266327,4.433342 190.783234,6.685871 178.553589,9.902100 
	C160.059692,14.765748 142.864288,22.876457 126.248192,32.287277 
	C110.406288,41.259621 95.552010,51.692253 82.494179,64.285202 
	C72.074715,74.333717 62.465828,85.303818 53.198620,96.448166 
	C36.906929,116.039864 25.298536,138.440369 16.472435,162.218750 
	C10.418107,178.529694 5.668063,195.251831 3.869194,212.695984 
	C3.508669,216.192108 1.986535,219.568436 0.999999,223.000000 
z"/>
<path fill="#00A2E8" opacity="1.000000" stroke="none" 
	d="
M0.999999,223.333328 
	C1.986535,219.568436 3.508669,216.192108 3.869194,212.695984 
	C5.668063,195.251831 10.418107,178.529694 16.472435,162.218750 
	C25.298536,138.440369 36.906929,116.039864 53.198620,96.448166 
	C62.465828,85.303818 72.074715,74.333717 82.494179,64.285202 
	C95.552010,51.692253 110.406288,41.259621 126.248192,32.287277 
	C142.864288,22.876457 160.059692,14.765748 178.553589,9.902100 
	C190.783234,6.685871 203.266327,4.433342 215.817963,1.374681 
	C238.687561,1.000000 261.375122,1.000000 284.531342,1.000000 
	C291.601349,2.331550 298.226685,3.555147 304.800018,5.012978 
	C336.445068,12.031195 365.552032,24.973289 392.334106,43.113873 
	C408.793549,54.262508 423.398590,67.671852 436.700165,82.354851 
	C454.348267,101.835846 468.345184,123.883934 478.867371,147.939713 
	C486.877106,166.251587 493.185822,185.222061 495.975616,205.148285 
	C497.176727,213.727310 497.970184,222.362823 499.035828,230.961899 
	C499.233459,232.556778 499.846863,234.100128 500.634155,235.833618 
	C501.000000,238.041672 501.000000,240.083328 500.630432,242.737061 
	C500.507263,245.899429 500.753632,248.449707 501.000000,251.000000 
	C501.000000,253.370560 501.000000,255.741104 501.000000,258.555847 
	C500.333435,261.750488 499.198730,264.480408 499.076813,267.254822 
	C498.319397,284.489990 495.261292,301.340942 489.968018,317.685211 
	C485.673645,330.945129 481.316254,344.329163 475.312164,356.855438 
	C467.218628,373.741089 457.736115,390.041046 445.212891,404.178314 
	C435.668396,414.952942 426.222168,425.952301 415.595032,435.598877 
	C398.241150,451.351440 378.612518,464.024048 357.298676,473.940735 
	C336.860596,483.449890 315.623077,490.231049 293.353790,494.180054 
	C275.039764,497.427704 256.648163,498.822662 238.199493,497.856812 
	C209.367584,496.347351 181.433121,490.119415 154.737305,478.924377 
	C131.890625,469.343475 110.621597,456.927673 91.665161,440.999268 
	C61.965847,416.043945 38.656502,386.060364 22.824127,350.457336 
	C13.996408,330.606049 7.921328,309.937958 4.039506,288.596252 
	C3.232971,284.162048 2.510267,279.712585 1.374465,275.135071 
	C1.000000,274.555542 1.000000,274.111115 1.369549,273.158752 
	C1.492732,270.100586 1.246367,267.550293 1.000000,265.000000 
	C1.000000,253.979111 1.000000,242.958206 1.357135,231.312683 
	C1.476181,228.792023 1.238091,226.896011 1.000000,225.000000 
	C1.000000,224.555557 1.000000,224.111099 0.999999,223.333328 
M229.534546,5.000000 
	C216.493210,7.089606 203.233795,8.299618 190.459518,11.466481 
	C169.100067,16.761696 148.813599,25.106419 129.595703,36.023476 
	C103.555672,50.815960 81.091339,69.917961 61.964878,92.762932 
	C47.160091,110.446022 35.463757,130.199417 26.114248,151.391190 
	C14.184399,178.431610 8.018044,206.828766 6.251588,236.082062 
	C5.440267,249.517883 7.014117,263.140198 8.057402,276.635345 
	C9.533648,295.730988 14.420870,314.060059 20.870653,332.096008 
	C31.511896,361.852783 47.528122,388.374298 68.497597,411.794708 
	C81.477669,426.291931 96.103477,439.100220 112.290459,450.144379 
	C134.153976,465.061615 157.718689,476.168091 183.074799,483.524353 
	C203.597610,489.478424 224.581039,492.638153 245.953918,492.981171 
	C265.244934,493.290771 284.234192,491.087067 303.171570,487.188599 
	C329.998718,481.665894 354.789917,471.198822 378.029938,457.219727 
	C399.833557,444.104614 418.874603,427.480225 435.548859,408.099518 
	C446.470642,395.405060 456.205872,381.960724 464.212097,367.311890 
	C478.381439,341.386536 488.190582,314.004517 492.143829,284.531525 
	C494.542328,266.649902 495.675751,248.901672 494.172302,230.852509 
	C492.837585,214.828629 490.153625,199.184860 486.111206,183.647003 
	C479.941986,159.934219 469.796844,138.037109 456.835175,117.403419 
	C443.974701,96.930847 428.128845,79.015839 409.804077,63.195724 
	C396.635590,51.827103 382.480927,41.987724 367.237885,33.694931 
	C347.705170,23.068390 327.213989,14.596367 305.385315,10.374498 
	C289.365540,7.276129 273.022797,5.585242 256.744812,4.190801 
	C248.074493,3.448064 239.236145,4.666666 229.534546,5.000000 
z"/>
<path fill="#FFFFFF" opacity="1.000000" stroke="none" 
	d="
M501.000000,250.555832 
	C500.753632,248.449707 500.507263,245.899429 500.630432,243.174561 
	C501.000000,245.370560 501.000000,247.741104 501.000000,250.555832 
z"/>
<path fill="#FFFFFF" opacity="1.000000" stroke="none" 
	d="
M1.000000,265.444153 
	C1.246367,267.550293 1.492732,270.100586 1.369549,272.825439 
	C1.000000,270.629425 1.000000,268.258881 1.000000,265.444153 
z"/>
<path fill="#FFFFFF" opacity="1.000000" stroke="none" 
	d="
M1.000000,225.428467 
	C1.238091,226.896011 1.476181,228.792023 1.357135,230.844025 
	C1.000000,229.285645 1.000000,227.571289 1.000000,225.428467 
z"/>
<path fill="#FFFFFF" opacity="1.000000" stroke="none" 
	d="
M230.004089,5.000000 
	C239.236145,4.666666 248.074493,3.448064 256.744812,4.190801 
	C273.022797,5.585242 289.365540,7.276129 305.385315,10.374498 
	C327.213989,14.596367 347.705170,23.068390 367.237885,33.694931 
	C382.480927,41.987724 396.635590,51.827103 409.804077,63.195724 
	C428.128845,79.015839 443.974701,96.930847 456.835175,117.403419 
	C469.796844,138.037109 479.941986,159.934219 486.111206,183.647003 
	C490.153625,199.184860 492.837585,214.828629 494.172302,230.852509 
	C495.675751,248.901672 494.542328,266.649902 492.143829,284.531525 
	C488.190582,314.004517 478.381439,341.386536 464.212097,367.311890 
	C456.205872,381.960724 446.470642,395.405060 435.548859,408.099518 
	C418.874603,427.480225 399.833557,444.104614 378.029938,457.219727 
	C354.789917,471.198822 329.998718,481.665894 303.171570,487.188599 
	C284.234192,491.087067 265.244934,493.290771 245.953918,492.981171 
	C224.581039,492.638153 203.597610,489.478424 183.074799,483.524353 
	C157.718689,476.168091 134.153976,465.061615 112.290459,450.144379 
	C96.103477,439.100220 81.477669,426.291931 68.497597,411.794708 
	C47.528122,388.374298 31.511896,361.852783 20.870653,332.096008 
	C14.420870,314.060059 9.533648,295.730988 8.057402,276.635345 
	C7.014117,263.140198 5.440267,249.517883 6.251588,236.082062 
	C8.018044,206.828766 14.184399,178.431610 26.114248,151.391190 
	C35.463757,130.199417 47.160091,110.446022 61.964878,92.762932 
	C81.091339,69.917961 103.555672,50.815960 129.595703,36.023476 
	C148.813599,25.106419 169.100067,16.761696 190.459518,11.466481 
	C203.233795,8.299618 216.493210,7.089606 230.004089,5.000000 
z"/>
</svg>