<svg version="1.1" id="Layer_1" xmlns="http://www.w3.org/2000/svg" xmlns:xlink="http://www.w3.org/1999/xlink" x="0px" y="0px"
	 width="100%" viewBox="0 0 500 501" enable-background="new 0 0 500 501" xml:space="preserve">
<path fill="none" opacity="1.000000" stroke="#000000" stroke-linecap="round" stroke-linejoin="round" stroke-width="5.000000"
	d="
M238.500000,4.500000 
	C233.352463,6.653041 227.813309,5.488337 222.466095,6.267314 
	C211.368561,7.883996 200.367569,9.768383 189.499573,12.498327 
	C162.166626,19.364128 136.898819,30.952879 113.539413,46.558994 
	C86.812904,64.414635 64.546417,87.008995 46.621037,113.581650 
	C31.262623,136.349014 20.193361,161.235123 13.449132,187.987183 
	C9.879927,202.144989 7.314197,216.382660 6.316169,230.987442 
	C5.894021,237.165039 5.539629,243.321503 5.513996,249.500061 
	C5.402408,276.397278 9.933967,302.611938 18.614965,327.960632 
	C28.691948,357.385559 43.936764,383.961761 64.430672,407.560211 
	C81.232384,426.907104 100.195152,443.657990 122.051956,456.914337 
	C145.645035,471.223785 170.747665,482.064178 197.990417,487.547638 
	C209.742508,489.913147 221.499893,491.710510 233.478531,492.747955 
	C243.358154,493.603577 253.225616,493.918152 262.989624,493.328308 
	C289.793365,491.709229 315.857574,486.566895 341.065582,476.666992 
	C365.193787,467.191162 387.502228,454.652771 407.349823,438.317535 
	C430.799744,419.017395 450.521667,396.233704 465.586182,369.548645 
	C477.012146,349.308929 485.531555,327.995728 490.888977,305.473602 
	C493.888092,292.865417 495.944305,280.061981 496.723236,267.013336 
	C497.141785,260.002228 497.502930,253.004181 497.458282,246.000259 
	C497.331879,226.168411 494.472382,206.710648 489.552246,187.486633 
	C482.596405,160.308548 471.269104,135.049789 455.390594,112.075615 
	C427.520111,71.750641 390.913788,41.804024 345.477112,23.055468 
	C328.918488,16.222879 311.772827,11.396729 294.026459,8.346019 
	C275.755829,5.205179 257.452942,4.188905 239.000000,4.500000 
"/>
</svg>