<svg version="1.1" id="Layer_1" xmlns="http://www.w3.org/2000/svg" xmlns:xlink="http://www.w3.org/1999/xlink" x="0px" y="0px"
	 width="100%" viewBox="0 0 500 501" enable-background="new 0 0 500 501" xml:space="preserve">
<path fill="#FFFFFF" opacity="1.000000" stroke="none" 
	d="
M501.000000,259.000000 
	C501.000000,339.963623 501.000000,420.927246 501.000000,501.945435 
	C334.444580,501.945435 167.889145,501.945435 1.000000,501.945435 
	C1.000000,426.645569 1.000000,351.290619 1.374927,275.607971 
	C2.159354,275.965271 2.823196,276.610107 2.938717,277.341522 
	C4.008543,284.115021 4.809747,290.934601 6.015992,297.682281 
	C11.928056,330.754333 25.021280,361.008667 43.550705,388.774597 
	C57.308819,409.390808 74.061378,427.479980 93.479851,443.141327 
	C115.700539,461.062744 140.101685,474.812927 166.914139,484.481140 
	C191.729568,493.429291 217.323425,498.206879 243.642197,498.912598 
	C252.056229,499.138184 260.543610,498.772095 268.915955,497.897003 
	C280.932556,496.640961 293.019501,495.358215 304.819550,492.869110 
	C333.971527,486.719818 360.998108,475.107941 386.025055,458.965363 
	C406.072998,446.034241 423.677368,430.318054 439.345306,412.288361 
	C451.538300,398.257385 461.820557,383.010223 470.652649,366.735352 
	C479.786560,349.904297 487.088135,332.206116 491.450745,313.628998 
	C495.021637,298.423523 496.527466,282.735565 499.031036,267.274780 
	C499.483032,264.483429 500.333496,261.756622 501.000000,259.000000 
z"/>
<path fill="#FFFFFF" opacity="1.000000" stroke="none" 
	d="
M285.000000,0.999999 
	C356.931335,1.000000 428.862640,1.000000 501.000000,1.000000 
	C501.000000,81.687447 501.000000,162.375061 500.622223,243.332550 
	C498.832245,230.723129 497.794434,217.789154 495.922485,204.977051 
	C492.914978,184.393051 486.360718,164.761124 477.886139,145.847610 
	C467.247925,122.105240 453.008972,100.532356 435.582947,81.263107 
	C422.404175,66.690277 407.658905,53.743782 391.318756,42.652813 
	C364.692810,24.580286 335.779724,11.906285 304.356689,4.982440 
	C297.924255,3.565096 291.453247,2.322918 285.000000,0.999999 
z"/>
<path fill="#FFFFFF" opacity="1.000000" stroke="none" 
	d="
M1.000002,223.000000 
	C1.000000,149.074295 1.000000,75.148598 1.000000,1.000000 
	C72.020737,1.000000 143.041718,1.000000 214.349060,1.367696 
	C212.222778,2.150513 209.814865,2.595884 207.396683,2.976033 
	C185.544113,6.411367 164.748932,13.247215 144.793350,22.667910 
	C123.092918,32.912312 103.279808,45.936497 85.307304,61.969505 
	C72.573952,73.328735 61.131264,85.687950 50.909672,99.296356 
	C38.895943,115.290703 28.835882,132.398666 21.062759,150.819077 
	C12.808748,170.379074 6.781335,190.577072 3.926558,211.683716 
	C3.408006,215.517624 1.998308,219.230988 1.000002,223.000000 
z"/>
<path fill="#FFF200" opacity="1.000000" stroke="none" 
	d="
M1.000002,223.333328 
	C1.998308,219.230988 3.408006,215.517624 3.926558,211.683716 
	C6.781335,190.577072 12.808748,170.379074 21.062759,150.819077 
	C28.835882,132.398666 38.895943,115.290703 50.909672,99.296356 
	C61.131264,85.687950 72.573952,73.328735 85.307304,61.969505 
	C103.279808,45.936497 123.092918,32.912312 144.793350,22.667910 
	C164.748932,13.247215 185.544113,6.411367 207.396683,2.976033 
	C209.814865,2.595884 212.222778,2.150513 214.817719,1.367696 
	C238.020889,1.000000 261.041779,1.000000 284.531342,0.999999 
	C291.453247,2.322918 297.924255,3.565096 304.356689,4.982440 
	C335.779724,11.906285 364.692810,24.580286 391.318756,42.652813 
	C407.658905,53.743782 422.404175,66.690277 435.582947,81.263107 
	C453.008972,100.532356 467.247925,122.105240 477.886139,145.847610 
	C486.360718,164.761124 492.914978,184.393051 495.922485,204.977051 
	C497.794434,217.789154 498.832245,230.723129 500.622223,243.801208 
	C501.000000,248.689255 501.000000,253.378494 501.000000,258.533875 
	C500.333496,261.756622 499.483032,264.483429 499.031036,267.274780 
	C496.527466,282.735565 495.021637,298.423523 491.450745,313.628998 
	C487.088135,332.206116 479.786560,349.904297 470.652649,366.735352 
	C461.820557,383.010223 451.538300,398.257385 439.345306,412.288361 
	C423.677368,430.318054 406.072998,446.034241 386.025055,458.965363 
	C360.998108,475.107941 333.971527,486.719818 304.819550,492.869110 
	C293.019501,495.358215 280.932556,496.640961 268.915955,497.897003 
	C260.543610,498.772095 252.056229,499.138184 243.642197,498.912598 
	C217.323425,498.206879 191.729568,493.429291 166.914139,484.481140 
	C140.101685,474.812927 115.700539,461.062744 93.479851,443.141327 
	C74.061378,427.479980 57.308819,409.390808 43.550705,388.774597 
	C25.021280,361.008667 11.928056,330.754333 6.015992,297.682281 
	C4.809747,290.934601 4.008543,284.115021 2.938717,277.341522 
	C2.823196,276.610107 2.159354,275.965271 1.374927,275.140137 
	C1.000000,274.555542 1.000000,274.111115 1.361385,273.165955 
	C1.481847,270.443512 1.240923,268.221771 1.000000,266.000000 
	C1.000000,254.979111 1.000000,243.958206 1.361385,232.301300 
	C1.481847,229.443527 1.240923,227.221756 0.999999,225.000000 
	C1.000000,224.555557 1.000000,224.111099 1.000002,223.333328 
M22.998896,159.515472 
	C12.806122,184.569763 7.693008,210.771500 6.141603,237.641464 
	C5.590379,247.188538 6.099361,256.890381 7.129501,266.412811 
	C8.603691,280.040009 10.177379,293.752228 13.173836,307.099152 
	C19.554438,335.519897 31.320501,361.856537 47.637737,385.949249 
	C59.671303,403.717041 73.827217,419.712280 90.157837,433.842163 
	C104.347336,446.119446 119.572975,456.708496 136.069122,465.526978 
	C154.989639,475.641510 174.868210,483.469421 195.872467,487.753510 
	C210.102386,490.655853 224.599625,492.926178 239.077271,493.776062 
	C260.657013,495.042847 282.068207,492.760162 303.319031,488.175629 
	C331.419952,482.113251 357.342712,471.102448 381.532104,455.881378 
	C401.567871,443.274048 419.135498,427.773773 434.755737,409.907410 
	C447.330231,395.524750 458.053955,379.969116 466.911072,363.136566 
	C476.582733,344.756012 483.724579,325.391144 488.475861,305.127167 
	C492.345367,288.624146 494.739410,271.917145 494.856903,255.014511 
	C494.938171,243.323471 494.399323,231.523849 492.818909,219.952881 
	C490.994537,206.595779 488.422272,193.248444 484.928833,180.231232 
	C477.982330,154.347107 466.229950,130.584152 450.905151,108.587990 
	C435.795349,86.900429 417.548981,68.166916 396.496796,52.326714 
	C381.349579,40.929554 364.818146,31.707598 347.413727,24.020447 
	C320.505096,12.135501 292.207001,5.680292 263.068329,4.336927 
	C245.526840,3.528221 227.669083,4.882440 210.250153,7.355053 
	C190.453262,10.165219 171.361130,16.351572 152.897354,24.451347 
	C125.888680,36.299644 101.891724,52.459927 80.718361,72.865341 
	C74.759468,78.608109 68.945198,84.577026 63.698673,90.963158 
	C57.482826,98.529167 51.177593,106.210129 46.298466,114.643883 
	C37.987816,129.009171 30.760359,144.001099 22.998896,159.515472 
z"/>
<path fill="#FFFFFF" opacity="1.000000" stroke="none" 
	d="
M0.999999,225.437500 
	C1.240923,227.221756 1.481847,229.443527 1.361385,231.832642 
	C1.000000,229.958328 1.000000,227.916656 0.999999,225.437500 
z"/>
<path fill="#FFFFFF" opacity="1.000000" stroke="none" 
	d="
M1.000000,266.437500 
	C1.240923,268.221771 1.481847,270.443512 1.361385,272.832642 
	C1.000000,270.958344 1.000000,268.916656 1.000000,266.437500 
z"/>
<path fill="#FFFFFF" opacity="1.000000" stroke="none" 
	d="
M23.038349,159.122620 
	C30.760359,144.001099 37.987816,129.009171 46.298466,114.643883 
	C51.177593,106.210129 57.482826,98.529167 63.698673,90.963158 
	C68.945198,84.577026 74.759468,78.608109 80.718361,72.865341 
	C101.891724,52.459927 125.888680,36.299644 152.897354,24.451347 
	C171.361130,16.351572 190.453262,10.165219 210.250153,7.355053 
	C227.669083,4.882440 245.526840,3.528221 263.068329,4.336927 
	C292.207001,5.680292 320.505096,12.135501 347.413727,24.020447 
	C364.818146,31.707598 381.349579,40.929554 396.496796,52.326714 
	C417.548981,68.166916 435.795349,86.900429 450.905151,108.587990 
	C466.229950,130.584152 477.982330,154.347107 484.928833,180.231232 
	C488.422272,193.248444 490.994537,206.595779 492.818909,219.952881 
	C494.399323,231.523849 494.938171,243.323471 494.856903,255.014511 
	C494.739410,271.917145 492.345367,288.624146 488.475861,305.127167 
	C483.724579,325.391144 476.582733,344.756012 466.911072,363.136566 
	C458.053955,379.969116 447.330231,395.524750 434.755737,409.907410 
	C419.135498,427.773773 401.567871,443.274048 381.532104,455.881378 
	C357.342712,471.102448 331.419952,482.113251 303.319031,488.175629 
	C282.068207,492.760162 260.657013,495.042847 239.077271,493.776062 
	C224.599625,492.926178 210.102386,490.655853 195.872467,487.753510 
	C174.868210,483.469421 154.989639,475.641510 136.069122,465.526978 
	C119.572975,456.708496 104.347336,446.119446 90.157837,433.842163 
	C73.827217,419.712280 59.671303,403.717041 47.637737,385.949249 
	C31.320501,361.856537 19.554438,335.519897 13.173836,307.099152 
	C10.177379,293.752228 8.603691,280.040009 7.129501,266.412811 
	C6.099361,256.890381 5.590379,247.188538 6.141603,237.641464 
	C7.693008,210.771500 12.806122,184.569763 23.038349,159.122620 
z"/>
</svg>